<?xml version="1.0" encoding="utf-8"?>

<svg version="1.1" id="Layer_1"  xmlns="http://www.w3.org/2000/svg" xmlns:xlink="http://www.w3.org/1999/xlink" x="0px" y="0px" viewBox="0 0 83.5 82.167"
	 style="enable-background:new 0 0 83.5 82.167;" xml:space="preserve">
<style type="text/css">
	.st0{fill:none;stroke:#000000;stroke-width:2;stroke-linecap:round;stroke-linejoin:round;stroke-miterlimit:10;}
</style>
<switch>
	<g >
		<path class="st0" d="M34.589,68.166c-0.002-6.46-2.465-12.924-7.396-17.857c-3.623-3.617-5.858-8.616-5.858-14.142
			c0-11.045,8.953-20,19.998-20s19.999,8.954,19.999,20c0,5.525-2.236,10.524-5.856,14.142c-4.934,4.934-7.396,11.397-7.4,17.857
			H34.589z"/>
		<path class="st0" d="M48.074,68.166H34.587v10.5c0,1.375,1.127,2.501,2.501,2.501h8.485c1.375,0,2.501-1.126,2.501-2.501V68.166z"
			/>
		<path class="st0" d="M32.492,27.327c-4.882,4.881-4.882,12.795,0.002,17.68C27.61,40.122,27.61,32.208,32.492,27.327z"/>
		<path class="st0" d="M41.332,1.167v7.5V1.167z"/>
		<path class="st0" d="M27.939,3.83l2.872,6.932L27.939,3.83z"/>
		<path class="st0" d="M15.929,25.645l-6.932-2.873L15.929,25.645z"/>
		<path class="st0" d="M66.736,46.688l6.932,2.873L66.736,46.688z"/>
		<path class="st0" d="M54.727,3.83l-2.869,6.932L54.727,3.83z"/>
		<path class="st0" d="M15.929,46.688l-6.932,2.873L15.929,46.688z"/>
		<path class="st0" d="M73.671,22.772l-6.932,2.873L73.671,22.772z"/>
		<path class="st0" d="M13.834,36.167H1.333H13.834z"/>
		<path class="st0" d="M81.333,36.167H68.831H81.333z"/>
		<path class="st0" d="M21.889,55.61l-8.841,8.842L21.889,55.61z"/>
		<path class="st0" d="M69.616,7.882l-8.837,8.837L69.616,7.882z"/>
		<path class="st0" d="M69.616,64.448l-8.837-8.841L69.616,64.448z"/>
		<path class="st0" d="M13.05,7.878l8.839,8.841L13.05,7.878z"/>
	</g>
</switch>
</svg>
